<svg width="166" height="50" viewBox="0 0 166 50" fill="none" xmlns="http://www.w3.org/2000/svg">
<path d="M6.91219 49.792C4.69352 49.792 2.98685 49.1947 1.79219 48C0.597521 46.7627 0.000187635 45.0347 0.000187635 42.816V13.248C0.000187635 10.9867 0.597521 9.25866 1.79219 8.064C3.02952 6.86933 4.75752 6.272 6.97619 6.272H22.9122C25.5149 6.272 27.7975 6.57067 29.7602 7.168C31.7655 7.72267 33.4509 8.59733 34.8162 9.792C36.1815 10.944 37.2055 12.3947 37.8882 14.144C38.6135 15.8933 38.9762 17.9413 38.9762 20.288C38.9762 23.4027 38.3575 26.112 37.1202 28.416C35.8829 30.6773 34.0695 32.4267 31.6802 33.664C29.2909 34.8587 26.3682 35.456 22.9122 35.456H13.7602V42.816C13.7602 45.0347 13.1842 46.7627 12.0322 48C10.8802 49.1947 9.17352 49.792 6.91219 49.792ZM13.7602 24.96H20.3522C22.2295 24.96 23.6589 24.576 24.6402 23.808C25.6642 23.04 26.1762 21.8667 26.1762 20.288C26.1762 19.2213 25.9415 18.3467 25.4722 17.664C25.0455 16.9813 24.3842 16.4693 23.4882 16.128C22.6349 15.7867 21.5895 15.616 20.3522 15.616H13.7602V24.96ZM58.9707 49.92C55.472 49.9627 52.2934 49.28 49.4347 47.872C46.6187 46.464 44.3574 44.5013 42.6507 41.984C40.9867 39.4667 40.1547 36.5653 40.1547 33.28C40.1547 30.848 40.6027 28.6293 41.4987 26.624C42.3947 24.6187 43.632 22.8907 45.2107 21.44C46.7894 19.9467 48.624 18.7947 50.7147 17.984C52.848 17.1733 55.152 16.768 57.6267 16.768C61.04 16.768 63.9414 17.4293 66.3307 18.752C68.7627 20.032 70.6187 21.6747 71.8987 23.68C73.1787 25.6853 73.8187 27.7547 73.8187 29.888C73.8187 31.4667 73.3707 32.64 72.4747 33.408C71.6214 34.176 70.5547 34.7093 69.2747 35.008C68.0374 35.264 66.864 35.4987 65.7547 35.712C64.2614 36.0107 62.704 36.224 61.0827 36.352C59.4614 36.48 57.8187 36.5653 56.1547 36.608C54.4907 36.6507 52.848 36.6933 51.2267 36.736L51.8027 30.272C53.2534 30.272 54.64 30.272 55.9627 30.272C57.328 30.2293 58.6507 30.144 59.9307 30.016C61.2107 29.888 62.512 29.6533 63.8347 29.312L62.6187 29.952C62.576 28.672 62.1494 27.6267 61.3387 26.816C60.528 26.0053 59.504 25.6 58.2667 25.6C57.2 25.6 56.2614 25.792 55.4507 26.176C54.64 26.56 54 27.1573 53.5307 27.968C53.104 28.736 52.8907 29.696 52.8907 30.848V32.256C52.8907 34.0907 53.1467 35.648 53.6587 36.928C54.1707 38.1653 54.9387 39.104 55.9627 39.744C56.9867 40.384 58.288 40.704 59.8667 40.704C60.8907 40.704 61.872 40.512 62.8107 40.128C63.792 39.7013 64.6454 39.1893 65.3707 38.592C66.224 37.8667 67.0987 37.5253 67.9947 37.568C68.8907 37.6107 69.68 37.9307 70.3627 38.528C71.0454 39.0827 71.5147 39.8293 71.7707 40.768C72.0267 41.664 71.92 42.6667 71.4507 43.776C71.024 44.8427 70.128 45.9093 68.7627 46.976C67.696 47.7867 66.3734 48.4693 64.7947 49.024C63.2587 49.5787 61.3174 49.8773 58.9707 49.92ZM85.1517 49.792C83.0184 49.792 81.3757 49.152 80.2237 47.872C79.0717 46.592 78.4957 44.928 78.4957 42.88V23.616C78.4957 21.44 79.0504 19.776 80.1597 18.624C81.3117 17.472 82.933 16.896 85.0237 16.896C87.1144 16.896 88.7144 17.472 89.8237 18.624C90.933 19.776 91.4877 21.44 91.4877 23.616V25.792L90.7837 22.592C91.8504 20.7573 93.301 19.328 95.1357 18.304C97.013 17.28 99.125 16.768 101.472 16.768C103.989 16.768 106.058 17.28 107.68 18.304C109.301 19.2853 110.517 20.8213 111.328 22.912C112.138 24.96 112.544 27.584 112.544 30.784V42.88C112.544 44.928 111.968 46.592 110.816 47.872C109.664 49.152 108.021 49.792 105.888 49.792C103.754 49.792 102.112 49.152 100.96 47.872C99.8077 46.592 99.2317 44.928 99.2317 42.88V31.296C99.2317 29.6747 98.9757 28.544 98.4637 27.904C97.9517 27.2213 97.2264 26.88 96.2877 26.88C94.965 26.88 93.877 27.328 93.0237 28.224C92.213 29.0773 91.8077 30.2507 91.8077 31.744V42.88C91.8077 44.928 91.2317 46.592 90.0797 47.872C88.9704 49.152 87.3277 49.792 85.1517 49.792ZM124.714 49.792C122.581 49.792 120.938 49.152 119.786 47.872C118.634 46.592 118.058 44.7787 118.058 42.432V24.448C118.058 22.1013 118.634 20.2667 119.786 18.944C120.938 17.5787 122.581 16.896 124.714 16.896C126.848 16.896 128.49 17.5787 129.642 18.944C130.794 20.2667 131.37 22.1013 131.37 24.448V42.432C131.37 44.7787 130.794 46.592 129.642 47.872C128.533 49.152 126.89 49.792 124.714 49.792ZM124.714 14.464C122.709 14.464 121.002 13.76 119.594 12.352C118.186 10.944 117.482 9.25866 117.482 7.296C117.482 5.248 118.186 3.52 119.594 2.112C121.002 0.703999 122.709 -9.53674e-07 124.714 -9.53674e-07C126.72 -9.53674e-07 128.426 0.703999 129.834 2.112C131.242 3.52 131.946 5.248 131.946 7.296C131.946 9.25866 131.242 10.944 129.834 12.352C128.426 13.76 126.72 14.464 124.714 14.464ZM150.757 49.92C149.179 49.92 147.6 49.8133 146.021 49.6C144.443 49.4293 142.971 49.088 141.605 48.576C140.24 48.064 139.045 47.3813 138.021 46.528C136.997 45.632 136.357 44.6933 136.101 43.712C135.845 42.7307 135.867 41.792 136.165 40.896C136.507 40 137.019 39.2747 137.701 38.72C138.427 38.1653 139.259 37.8667 140.197 37.824C141.136 37.7387 142.075 38.0373 143.013 38.72C144.507 39.8293 145.787 40.6613 146.853 41.216C147.92 41.7707 149.072 42.048 150.309 42.048C151.504 42.048 152.336 41.8347 152.805 41.408C153.275 40.9387 153.509 40.4693 153.509 40C153.509 39.5307 153.339 39.168 152.997 38.912C152.656 38.6133 152.229 38.4 151.717 38.272L144.677 36.416C142.032 35.6907 139.835 34.5813 138.085 33.088C136.379 31.552 135.525 29.5467 135.525 27.072C135.525 24.9387 136.229 23.104 137.637 21.568C139.045 20.032 140.944 18.8587 143.333 18.048C145.723 17.1947 148.368 16.768 151.269 16.768C153.573 16.768 155.685 16.9813 157.605 17.408C159.568 17.8347 161.339 18.8373 162.917 20.416C163.728 21.2267 164.219 22.08 164.389 22.976C164.56 23.872 164.496 24.7253 164.197 25.536C163.899 26.304 163.429 26.9653 162.789 27.52C162.149 28.0747 161.403 28.3947 160.549 28.48C159.696 28.5653 158.843 28.3307 157.989 27.776C156.752 26.9653 155.707 26.2827 154.853 25.728C154 25.1307 153.019 24.832 151.909 24.832C150.715 24.832 149.861 25.0667 149.349 25.536C148.837 25.9627 148.581 26.4107 148.581 26.88C148.581 27.3067 148.709 27.712 148.965 28.096C149.264 28.4373 149.691 28.672 150.245 28.8L157.029 30.208C159.76 30.7627 161.851 31.7653 163.301 33.216C164.752 34.6667 165.477 36.6507 165.477 39.168C165.477 41.4293 164.88 43.3707 163.685 44.992C162.491 46.6133 160.784 47.8507 158.565 48.704C156.389 49.5147 153.787 49.92 150.757 49.92Z" fill="black"/>
</svg>
